<?xml version="1.0" encoding="UTF-8"?>
<svg version="1.1" xmlns="http://www.w3.org/2000/svg" width="36" height="36">
<path d="M0 0 C1.71944301 1.71944301 1.29345984 3.90415223 1.375 6.25 C1.34253324 10.41656794 1.25733396 11.64259173 -1.25 15.125 C-5.18158568 17.8056266 -5.18158568 17.8056266 -8 18 C-8.66 17.67 -9.32 17.34 -10 17 C-10.36891876 14.50682319 -10.60552749 12.13229712 -10.75 9.625 C-10.80542969 8.93921875 -10.86085938 8.2534375 -10.91796875 7.546875 C-11.1628773 3.73223879 -11.18023691 2.27035537 -9 -1 C-5.49998779 -2.56897099 -3.33973233 -1.62473465 0 0 Z " fill="#1D7DFA" transform="translate(35,13)"/>
<path d="M0 0 C0.22181406 2.43695715 0.42791119 4.873526 0.625 7.3125 C0.68945312 8.00279297 0.75390625 8.69308594 0.8203125 9.40429688 C1.11802847 13.2559972 1.20763723 14.68854416 -1 18 C-4.04070746 19.15053796 -5.66568677 19.08915019 -8.8125 18.25 C-11.54439024 15.44005575 -11.36706645 14.27612852 -11.4375 10.4375 C-11.32201087 5.32201087 -11.32201087 5.32201087 -9 3 C-8.38125 2.195625 -8.38125 2.195625 -7.75 1.375 C-5.23147275 -0.60384284 -3.11723721 -0.09267462 0 0 Z " fill="#F16337" transform="translate(11,6)"/>
<path d="M0 0 C10.81308648 -0.77605884 10.81308648 -0.77605884 15.25 2.125 C17.26958861 5.44289558 17.14738023 7.1996954 17 11 C14.56292912 11.2757817 12.12904951 11.52131492 9.6875 11.75 C8.99720703 11.83121094 8.30691406 11.91242187 7.59570312 11.99609375 C5.57421875 12.171875 5.57421875 12.171875 2 12 C-0.38840232 9.76239294 -0.96216291 8.11351128 -2 5 C-1.0625 2.3125 -1.0625 2.3125 0 0 Z " fill="#383F70" transform="translate(13,0)"/>
<path d="M0 0 C0.86516528 4.49885947 1.30903272 7.01647791 -1 11 C-10.83711825 11.7752545 -10.83711825 11.7752545 -15.1875 8.875 C-17.28577827 5.54669654 -17.15440547 3.8441637 -17 0 C-14.9174133 -0.19561869 -12.83388144 -0.38119313 -10.75 -0.5625 C-9.58984375 -0.66691406 -8.4296875 -0.77132813 -7.234375 -0.87890625 C-4.48128523 -0.98198087 -2.580018 -0.86213473 0 0 Z " fill="#35E7AC" transform="translate(23,25)"/>
<path d="M0 0 C-0.54755277 3.83286936 -2.2333041 5.40098264 -5 8 C-5.66 8.99 -6.32 9.98 -7 11 C-7.125 8.125 -7.125 8.125 -7 5 C-6.34 4.34 -5.68 3.68 -5 3 C-4.505 2.46375 -4.01 1.9275 -3.5 1.375 C-2 0 -2 0 0 0 Z " fill="#F48D70" transform="translate(7,6)"/>
<path d="M0 0 C0.61875 0.7734375 0.61875 0.7734375 1.25 1.5625 C-2.12097383 3.06071059 -3.95442119 3.5625 -7.75 3.5625 C-6.77617818 1.04679364 -6.28848865 -0.17694098 -3.8125 -1.375 C-1.75 -1.4375 -1.75 -1.4375 0 0 Z " fill="#68A6FC" transform="translate(31.75,12.4375)"/>
<path d="" fill="#FFFFFF" transform="translate(0,0)"/>
</svg>
